<svg width="25" height="25" viewBox="0 0 25 25" fill="none" xmlns="http://www.w3.org/2000/svg">
<path d="M23.046 13.5787V9.73882L24.0734 8.89507C24.1216 8.85737 24.1599 8.80852 24.1851 8.75272C24.2103 8.69693 24.2215 8.63586 24.2179 8.57476C24.2138 8.5134 24.1958 8.45376 24.1654 8.40032C24.1349 8.34688 24.0928 8.30102 24.0421 8.26616L12.714 0.844289C12.6495 0.804078 12.5751 0.782761 12.4991 0.782761C12.4232 0.782761 12.3487 0.804078 12.2843 0.844289L0.956172 8.26616C0.905499 8.30102 0.863366 8.34688 0.832925 8.40032C0.802484 8.45376 0.784525 8.5134 0.780391 8.57476C0.776757 8.63586 0.788011 8.69693 0.813186 8.75272C0.838361 8.80852 0.876705 8.85737 0.924922 8.89507L5.07727 12.2935V12.5162C4.5538 13.6282 4.28688 14.8436 4.29626 16.0726C4.30563 17.3016 4.59105 18.5128 5.13142 19.6167C5.6718 20.7206 6.45331 21.6889 7.41822 22.4502C8.38312 23.2114 9.50675 23.7461 10.7061 24.0148C11.9054 24.2834 13.1498 24.2791 14.3472 24.0023C15.5447 23.7254 16.6646 23.1829 17.6243 22.4151C18.5839 21.6472 19.3587 20.6735 19.8915 19.5659C20.4243 18.4583 20.7014 17.2452 20.7023 16.0162C20.7054 14.8059 20.4385 13.6102 19.921 12.5162V12.2935L22.2648 10.3755V13.5787L21.3077 15.4927C21.2185 15.6716 21.1764 15.8703 21.1856 16.07C21.1948 16.2696 21.2549 16.4636 21.3602 16.6335C21.4655 16.8034 21.6125 16.9436 21.7872 17.0406C21.962 17.1377 22.1586 17.1884 22.3585 17.188H22.9523C23.1522 17.1884 23.3488 17.1377 23.5236 17.0406C23.6983 16.9436 23.8453 16.8034 23.9506 16.6335C24.0559 16.4636 24.116 16.2696 24.1252 16.07C24.1344 15.8703 24.0923 15.6716 24.0031 15.4927L23.046 13.5787ZM9.38196 15.6255C9.39512 14.0635 9.6752 12.5151 10.2101 11.0474C10.9708 10.9722 11.7348 10.9357 12.4991 10.938C13.2635 10.9357 14.0275 10.9722 14.7882 11.0474C15.3231 12.5151 15.6032 14.0635 15.6163 15.6255H9.38196ZM15.6163 16.4068C15.5997 17.6111 15.4358 18.8088 15.1281 19.9732C13.4249 19.3847 11.5734 19.3847 9.87024 19.9732C9.56253 18.8088 9.39855 17.6111 9.38196 16.4068H15.6163ZM12.4991 10.1568C9.82727 10.1568 7.14367 10.5826 5.85852 11.399V8.98491C5.85852 8.45366 8.20227 7.42241 12.4991 7.42241C16.796 7.42241 19.1398 8.45366 19.1398 8.98491V11.399C17.8546 10.5826 15.171 10.1568 12.4991 10.1568ZM9.33508 11.1529C8.86505 12.5979 8.61743 14.1061 8.60071 15.6255H5.08899C5.13727 14.6367 5.38577 13.6679 5.81946 12.7779C5.84572 12.7244 5.8591 12.6656 5.85852 12.606V12.5005C5.85852 12.1216 7.06946 11.4849 9.33508 11.1529ZM5.0968 16.4068H8.60071C8.61921 17.7084 8.80163 19.0024 9.14368 20.2584C8.50439 20.5469 7.9045 20.9157 7.35852 21.356C6.00177 20.0546 5.19282 18.2844 5.0968 16.4068ZM7.96008 21.8755C8.39962 21.5324 8.87662 21.2402 9.38196 21.0044C9.64602 21.7918 10.0481 22.5259 10.5695 23.1724C9.62204 22.9181 8.73492 22.4771 7.96008 21.8755ZM12.4991 23.438C11.6241 23.438 10.714 22.4302 10.1046 20.7193C11.655 20.1776 13.3433 20.1776 14.8937 20.7193C14.2843 22.4302 13.3741 23.438 12.4991 23.438ZM14.4288 23.1724C14.9502 22.5259 15.3523 21.7918 15.6163 21.0044C16.1217 21.2402 16.5987 21.5324 17.0382 21.8755C16.2634 22.4771 15.3763 22.9181 14.4288 23.1724ZM17.6398 21.356C17.0938 20.9157 16.4939 20.5469 15.8546 20.2584C16.1967 19.0024 16.3791 17.7084 16.3976 16.4068H19.9015C19.8055 18.2844 18.9965 20.0546 17.6398 21.356ZM16.3976 15.6255C16.3809 14.1061 16.1332 12.5979 15.6632 11.1529C17.9288 11.4849 19.1398 12.1216 19.1398 12.5005V12.606C19.1392 12.6656 19.1526 12.7244 19.1788 12.7779C19.6125 13.6679 19.861 14.6367 19.9093 15.6255H16.3976ZM19.921 11.2857V8.98491C19.921 7.44585 16.1866 6.64116 12.4991 6.64116C8.81164 6.64116 5.07727 7.44585 5.07727 8.98491V11.2857L1.83117 8.62945L12.4991 1.64116L23.1671 8.62945L19.921 11.2857ZM23.2843 16.2232C23.2501 16.2804 23.2014 16.3275 23.143 16.3598C23.0847 16.392 23.0189 16.4082 22.9523 16.4068H22.3585C22.2919 16.4082 22.2261 16.392 22.1678 16.3598C22.1094 16.3275 22.0607 16.2804 22.0265 16.2232C21.9909 16.1663 21.9704 16.1013 21.967 16.0343C21.9636 15.9673 21.9773 15.9006 22.007 15.8404L22.6554 14.5474L23.3038 15.8404C23.3335 15.9006 23.3472 15.9673 23.3438 16.0343C23.3404 16.1013 23.3199 16.1663 23.2843 16.2232Z" fill="#0ED984"/>
</svg>
