<svg width="48" height="50" viewBox="0 0 48 50" fill="none" xmlns="http://www.w3.org/2000/svg">
<path d="M46.9319 23.6279L23.8055 0.565417C23.0477 -0.189756 21.821 -0.188486 21.0646 0.569323C20.3087 1.32704 20.3106 2.55447 21.0685 3.31023L41 23.1867H1.60128C0.716917 23.1867 0 23.9037 0 24.788C0 25.6657 0.706457 26.3798 1.58404 26.3892L41 26.8134L21.0677 46.6898C20.31 47.4457 20.308 48.6724 21.0638 49.4302C21.443 49.81 21.9397 50 22.4365 50C22.932 50 23.4268 49.8113 23.8054 49.4341L46.9319 26.3722C47.2969 26.0091 47.5017 25.5149 47.5017 25.0001C47.5017 24.4852 47.2963 23.9917 46.9319 23.6279Z" fill="white"/>
</svg>
